<svg width="219" height="64" viewBox="0 0 219 64" fill="none" xmlns="http://www.w3.org/2000/svg">
<path d="M28.4373 13.2805C28.3706 13.147 28.1703 13.0136 28.0369 13.0136H20.3622L22.698 8.20855C23.699 6.07299 24.9003 3.47028 29.4383 3.47028C30.3059 3.47028 31.1735 3.67049 31.9743 3.8707C32.7751 4.07091 33.5092 4.27112 34.3101 4.27112C35.9785 4.27112 36.9795 2.66945 36.9795 1.80188C36.9795 0.667365 35.6448 0 33.309 0C30.2392 0 26.9024 1.00104 24.8335 2.00209C17.5593 5.33889 15.4905 8.94265 13.2214 13.0136H6.74803C6.54782 13.0136 6.41435 13.147 6.28088 13.2805L5.41331 14.9489C5.34657 15.0824 5.34657 15.2826 5.41331 15.4161C5.48004 15.5495 5.68025 15.683 5.81372 15.683H11.9534L0.408094 40.1752C0.341358 40.3754 0.341357 40.5756 0.474829 40.7091L0.675035 40.976C0.741771 41.0428 0.875243 41.1095 1.00872 41.1095H1.07546L5.74699 40.3754C5.88046 40.3754 6.01393 40.2419 6.08067 40.1084L18.7605 15.683H26.8356C27.0358 15.683 27.1693 15.6163 27.3028 15.4161L28.2371 13.7477C28.5708 13.6142 28.5708 13.414 28.4373 13.2805Z" fill="#CC0000"/>
<path d="M60.0031 12.8125H66.3431V16.2161H60.0031V29.9637C60.0031 31.4319 60.6037 32.0326 62.0052 32.0326H66.4098V35.4361H61.805C58.4014 35.4361 56.3994 33.434 56.3994 30.1639V16.1494H52.2617V12.7458H56.3994V7.27344H60.0698V12.8125H60.0031Z" fill="black"/>
<path d="M75.486 12.8125H80.0908V16.216H75.6862C74.3515 16.216 73.6842 16.8167 73.6842 18.2849V35.4361H70.0137V18.0847C70.0804 14.8146 72.0825 12.8125 75.486 12.8125Z" fill="black"/>
<path d="M104.517 35.4361H100.98V31.8991C98.7772 34.5685 95.9076 35.9032 92.6375 35.9032C85.6969 35.9032 81.0254 30.4309 81.0254 24.2912C81.0254 17.8845 86.2308 12.4121 92.8377 12.4121C99.7783 12.4121 104.517 17.8845 104.517 24.1577V35.4361ZM84.6959 24.1577C84.6959 28.6957 88.2996 32.3662 92.7042 32.3662C97.1755 32.3662 100.779 28.6957 100.779 24.1577C100.779 19.5529 97.1755 15.9491 92.7042 15.9491C88.2996 15.9491 84.6959 19.6196 84.6959 24.1577Z" fill="black"/>
<path d="M127.873 22.2223V35.4361H124.203V22.2223C124.203 18.9523 122.868 15.8824 118.263 15.8824C115.26 15.8824 112.324 18.4184 112.324 22.2223V35.4361H108.653V12.8125H112.19V15.6822C113.859 13.5466 116.328 12.4121 118.864 12.4121C124.403 12.4121 127.873 15.6822 127.873 22.2223Z" fill="black"/>
<path d="M139.686 12.4121C144.959 12.4121 148.429 15.0816 148.829 19.5529H145.292C144.892 17.0169 143.09 15.6822 139.686 15.6822C137.017 15.6822 135.215 17.0169 135.215 19.019C135.215 24.5581 149.096 20.287 149.096 29.4298C149.096 33.3673 145.559 36.0367 140.687 36.0367C135.215 36.0367 131.611 33.5675 131.211 29.0294H134.748C135.148 31.5654 137.15 32.8334 140.687 32.8334C143.557 32.8334 145.492 31.4319 145.492 29.4966C145.492 23.8907 131.611 28.4288 131.611 19.0857C131.611 15.2818 134.881 12.4121 139.686 12.4121Z" fill="black"/>
<path d="M150.431 12.813H154.569V10.8776C154.569 7.67429 156.571 5.60547 159.974 5.60547H164.579V9.00901H160.174C158.84 9.00901 158.172 9.60964 158.172 11.0778V12.7462H164.579V16.1498H158.172V35.3698H154.502V16.1498H150.364V12.813H150.431Z" fill="black"/>
<path d="M177.258 35.8365C170.718 35.8365 165.513 30.4309 165.513 24.0909C165.513 18.0179 170.184 12.4121 177.258 12.4121C182.597 12.4121 188.87 16.2161 188.937 24.825H169.183C169.517 28.9627 173.054 32.3662 177.258 32.3662C180.795 32.3662 183.665 30.3641 184.866 27.2275H188.603C187.335 32.0325 182.998 35.8365 177.258 35.8365ZM169.584 21.555H184.733C183.732 17.8177 180.595 15.8824 177.258 15.8824C173.654 15.8824 170.585 18.2182 169.584 21.555Z" fill="black"/>
<path d="M197.813 12.8125H202.418V16.216H198.08C196.745 16.216 196.078 16.8167 196.078 18.2849V35.4361H192.407V18.0847C192.407 14.8146 194.409 12.8125 197.813 12.8125Z" fill="black"/>
<path d="M211.494 12.8125H217.834V16.2161H211.494V29.9637C211.494 31.4319 212.095 32.0326 213.496 32.0326H217.901V35.4361H213.296C209.893 35.4361 207.891 33.434 207.891 30.1639V16.1494H203.753V12.7458H207.891V7.27344H211.561V12.8125H211.494Z" fill="black"/>
<path d="M137.151 48.1162C140.621 48.1162 143.357 50.9859 143.357 54.3894C143.357 57.5928 140.888 60.5291 137.218 60.5291C135.549 60.5291 134.014 59.8618 132.88 58.5271V63.9994H130.944V54.3227C130.944 51.0526 133.48 48.1162 137.151 48.1162ZM132.946 54.3227C132.946 56.7252 134.882 58.6605 137.218 58.6605C139.553 58.6605 141.489 56.7252 141.489 54.3227C141.489 51.9202 139.553 49.9848 137.218 49.9848C134.815 49.9848 132.946 51.8534 132.946 54.3227Z" fill="#CC0000"/>
<path d="M148.095 48.3164H150.564V50.1183H148.229C147.495 50.1183 147.161 50.452 147.161 51.1861V60.2622H145.226V51.0526C145.226 49.3842 146.293 48.3164 148.095 48.3164Z" fill="#CC0000"/>
<path d="M157.239 60.5291C153.768 60.5291 151.032 57.6595 151.032 54.3227C151.032 51.1193 153.501 48.1162 157.239 48.1162C160.042 48.1162 163.378 50.1183 163.445 54.6564H152.968C153.168 56.8587 154.97 58.6605 157.239 58.6605C159.107 58.6605 160.642 57.5927 161.243 55.9243H163.245C162.578 58.5271 160.309 60.5291 157.239 60.5291ZM153.168 52.9212H161.176C160.642 50.9191 158.974 49.9181 157.239 49.9181C155.303 49.9848 153.702 51.1861 153.168 52.9212Z" fill="#CC0000"/>
<path d="M170.052 49.9848C168.584 49.9848 167.182 51.1861 167.182 52.988V60.3289H165.247V48.3832H167.116V49.8514C167.917 48.7168 169.118 48.1162 170.386 48.1162C172.121 48.1162 173.522 48.7836 174.256 50.1183C175.124 48.7836 176.525 48.1162 177.994 48.1162C180.73 48.1162 182.465 49.7179 182.465 52.988V60.3289H180.53V52.988C180.53 51.453 179.862 49.9848 177.66 49.9848C176.192 49.9848 174.79 51.1861 174.79 52.988V60.3289H172.855V52.988C172.922 51.3863 172.254 49.9848 170.052 49.9848Z" fill="#CC0000"/>
<path d="M184.533 45.5138C184.533 44.9131 185.067 44.3125 185.734 44.3125C186.402 44.3125 186.936 44.9131 186.936 45.5138C186.936 46.1144 186.402 46.715 185.734 46.715C185.067 46.715 184.533 46.1144 184.533 45.5138ZM184.8 48.3167H186.735V60.2624H184.8V48.3167Z" fill="#CC0000"/>
<path d="M189.139 55.6574V48.3164H191.074V55.6574C191.074 57.5927 192.275 58.6605 194.144 58.6605C196.012 58.6605 197.214 57.526 197.214 55.6574V48.3164H199.149V55.6574C199.149 58.6605 197.08 60.5291 194.211 60.5291C191.341 60.5291 189.139 58.6605 189.139 55.6574Z" fill="#CC0000"/>
<path d="M206.156 49.9848C204.688 49.9848 203.287 51.1861 203.287 52.988V60.3289H201.418V48.3832H203.287V49.8514C204.087 48.7168 205.289 48.1162 206.557 48.1162C208.292 48.1162 209.693 48.7836 210.427 50.1183C211.295 48.7836 212.696 48.1162 214.165 48.1162C216.901 48.1162 218.636 49.7179 218.636 52.988V60.3289H216.701V52.988C216.701 51.453 216.033 49.9848 213.831 49.9848C212.363 49.9848 210.961 51.1861 210.961 52.988V60.3289H209.026V52.988C209.026 51.3863 208.359 49.9848 206.156 49.9848Z" fill="#CC0000"/>
</svg>
